<svg width="33" height="27" viewBox="0 0 33 27"  xmlns="http://www.w3.org/2000/svg">
<path d="M25.6312 0.369932C24.301 0.686636 22.7555 1.94078 22.1855 3.16959C22.0081 3.53697 21.8054 4.17038 21.7167 4.56309L21.5647 5.29784H13.5078H5.45084L4.75409 5.63988C3.994 6.03259 3.42394 6.72934 3.24658 7.52744C3.18324 7.79347 3.1199 11.2899 3.1199 15.2677V22.5265H1.66307C0.244234 22.5265 0.193561 22.5392 0.0668795 22.8306C-0.135811 23.2739 0.142888 24.4267 0.624278 25.1488C1.06766 25.8202 1.99244 26.5043 2.71452 26.707C3.3606 26.8844 28.9756 26.8844 29.6217 26.707C30.3437 26.5043 31.2685 25.8202 31.7119 25.1488C32.1933 24.4267 32.472 23.2739 32.2693 22.8306C32.1426 22.5392 32.0919 22.5265 30.6731 22.5265H29.2163V16.5218V10.5171L29.8497 10.1117C31.6612 8.94627 32.6493 6.74201 32.2693 4.70244C31.8893 2.66287 30.5211 1.07935 28.5955 0.471277C27.7594 0.217915 26.48 0.167242 25.6312 0.369932ZM28.6589 1.8141C29.5583 2.20681 30.2804 2.90356 30.6984 3.75233C31.0025 4.38573 31.0532 4.62643 31.0532 5.61455C31.0532 6.60266 31.0025 6.84336 30.7111 7.38809C29.7357 9.2503 27.5061 10.1877 25.6439 9.50367C22.6795 8.42687 21.8814 4.70244 24.1744 2.57419C25.4285 1.38338 27.088 1.10468 28.6589 1.8141ZM21.7421 6.80535C21.7421 7.31208 22.6288 8.80692 23.3256 9.46566C24.4404 10.5171 26.1379 11.1252 27.4047 10.9352L27.9495 10.8592L27.9241 16.6612L27.8861 22.4632H16.1681H4.45006L4.41205 15.179C4.38672 9.93438 4.42472 7.79347 4.52607 7.5401C4.60207 7.35008 4.84277 7.04605 5.04546 6.88136L5.4255 6.56466H13.5838C21.4634 6.56466 21.7421 6.57733 21.7421 6.80535ZM30.9898 23.806C30.9898 24.3507 30.0777 25.2755 29.2923 25.5035C28.3548 25.7822 3.98134 25.7822 3.04389 25.5035C2.25847 25.2755 1.34636 24.3507 1.34636 23.806C1.34636 23.7047 5.76754 23.6667 16.1681 23.6667C26.5686 23.6667 30.9898 23.7047 30.9898 23.806Z" />
<path d="M27.316 5.10747L26.1252 6.29827L25.5298 5.74087C25.1878 5.42417 24.8711 5.17081 24.8204 5.17081C24.5797 5.17081 24.149 5.58886 24.149 5.81688C24.149 6.10825 25.4665 7.55242 25.8592 7.70444C26.2519 7.85645 26.6446 7.57776 28.0508 6.14626C29.3556 4.8161 29.571 4.43606 29.1909 4.05601C28.8489 3.71397 28.4942 3.91666 27.316 5.10747Z" />
<path d="M6.4769 8.76926C6.09686 9.33933 6.67959 9.92206 7.24966 9.54202C7.60437 9.31399 7.64237 8.95928 7.351 8.66792C7.0723 8.37655 6.70493 8.41455 6.4769 8.76926Z" />
<path d="M9.73267 8.61671C9.49198 8.8574 9.54265 9.45281 9.82135 9.60482C9.98603 9.68083 11.8102 9.73151 14.9013 9.73151C17.9923 9.73151 19.8165 9.68083 19.9812 9.60482C20.2599 9.45281 20.3106 8.8574 20.0699 8.61671C19.8545 8.40135 9.94803 8.40135 9.73267 8.61671Z" />
<path d="M6.47697 11.9358C6.08426 12.5185 6.79367 13.1646 7.31307 12.6959C7.60444 12.4298 7.6171 12.1005 7.35107 11.8344C7.05971 11.5431 6.705 11.5811 6.47697 11.9358Z" />
<path d="M9.80864 11.7717C9.49193 11.9491 9.5046 12.5951 9.8213 12.7725C10.1633 12.9499 23.4396 12.9499 23.7816 12.7725C23.9336 12.6838 24.0223 12.5065 24.0223 12.2658C24.0223 12.0251 23.9336 11.8477 23.7816 11.7591C23.4396 11.5817 10.1127 11.5944 9.80864 11.7717Z" />
<path d="M6.54024 15.0525C6.29955 15.2931 6.28688 15.4705 6.28688 17.6241C6.28688 19.5116 6.32488 19.993 6.48957 20.2211L6.67959 20.4998H16.168H25.6565L25.8465 20.2211C26.0112 19.993 26.0492 19.5116 26.0492 17.6241C26.0492 15.4705 26.0365 15.2931 25.7958 15.0525C25.5425 14.7991 25.3778 14.7991 16.168 14.7991C6.95829 14.7991 6.79361 14.7991 6.54024 15.0525ZM24.7824 17.6494V19.2329H16.168H7.5537V17.6494V16.0659H16.168H24.7824V17.6494Z" />
</svg>
