<svg width="25" height="25" viewBox="0 0 25 25" fill="none" xmlns="http://www.w3.org/2000/svg">
<path d="M22.3958 4.16663H20.1389V5.55552H22.2222V20.8333H2.77777V5.55552H4.8611V4.16663H2.60416C2.44182 4.16934 2.28161 4.20401 2.13268 4.26865C1.98374 4.33329 1.849 4.42663 1.73615 4.54336C1.62329 4.66008 1.53454 4.79789 1.47495 4.94892C1.41537 5.09995 1.38612 5.26124 1.38888 5.42357V20.9652C1.38612 21.1276 1.41537 21.2889 1.47495 21.4399C1.53454 21.5909 1.62329 21.7287 1.73615 21.8455C1.849 21.9622 1.98374 22.0555 2.13268 22.1202C2.28161 22.1848 2.44182 22.2195 2.60416 22.2222H22.3958C22.5582 22.2195 22.7184 22.1848 22.8673 22.1202C23.0162 22.0555 23.151 21.9622 23.2638 21.8455C23.3767 21.7287 23.4654 21.5909 23.525 21.4399C23.5846 21.2889 23.6139 21.1276 23.6111 20.9652V5.42357C23.6139 5.26124 23.5846 5.09995 23.525 4.94892C23.4654 4.79789 23.3767 4.66008 23.2638 4.54336C23.151 4.42663 23.0162 4.33329 22.8673 4.26865C22.7184 4.20401 22.5582 4.16934 22.3958 4.16663Z" fill="#A1191A"/>
<path d="M5.55554 9.72217H6.94443V11.1111H5.55554V9.72217Z" fill="#A1191A"/>
<path d="M9.72223 9.72217H11.1111V11.1111H9.72223V9.72217Z" fill="#A1191A"/>
<path d="M13.8889 9.72217H15.2778V11.1111H13.8889V9.72217Z" fill="#A1191A"/>
<path d="M18.0555 9.72217H19.4444V11.1111H18.0555V9.72217Z" fill="#A1191A"/>
<path d="M5.55554 13.1945H6.94443V14.5833H5.55554V13.1945Z" fill="#A1191A"/>
<path d="M9.72223 13.1945H11.1111V14.5833H9.72223V13.1945Z" fill="#A1191A"/>
<path d="M13.8889 13.1945H15.2778V14.5833H13.8889V13.1945Z" fill="#A1191A"/>
<path d="M18.0555 13.1945H19.4444V14.5833H18.0555V13.1945Z" fill="#A1191A"/>
<path d="M5.55554 16.6666H6.94443V18.0555H5.55554V16.6666Z" fill="#A1191A"/>
<path d="M9.72223 16.6666H11.1111V18.0555H9.72223V16.6666Z" fill="#A1191A"/>
<path d="M13.8889 16.6666H15.2778V18.0555H13.8889V16.6666Z" fill="#A1191A"/>
<path d="M18.0555 16.6666H19.4444V18.0555H18.0555V16.6666Z" fill="#A1191A"/>
<path d="M6.94444 6.94447C7.12862 6.94447 7.30526 6.87131 7.43549 6.74107C7.56572 6.61084 7.63889 6.4342 7.63889 6.25003V2.08336C7.63889 1.89918 7.56572 1.72255 7.43549 1.59231C7.30526 1.46208 7.12862 1.38892 6.94444 1.38892C6.76027 1.38892 6.58363 1.46208 6.4534 1.59231C6.32316 1.72255 6.25 1.89918 6.25 2.08336V6.25003C6.25 6.4342 6.32316 6.61084 6.4534 6.74107C6.58363 6.87131 6.76027 6.94447 6.94444 6.94447Z" fill="#A1191A"/>
<path d="M18.0556 6.94447C18.2397 6.94447 18.4164 6.87131 18.5466 6.74107C18.6768 6.61084 18.75 6.4342 18.75 6.25003V2.08336C18.75 1.89918 18.6768 1.72255 18.5466 1.59231C18.4164 1.46208 18.2397 1.38892 18.0556 1.38892C17.8714 1.38892 17.6947 1.46208 17.5645 1.59231C17.4343 1.72255 17.3611 1.89918 17.3611 2.08336V6.25003C17.3611 6.4342 17.4343 6.61084 17.5645 6.74107C17.6947 6.87131 17.8714 6.94447 18.0556 6.94447Z" fill="#A1191A"/>
<path d="M9.02777 4.16663H15.9722V5.55551H9.02777V4.16663Z" fill="#A1191A"/>
</svg>
