<svg width="15" height="15" viewBox="0 0 15 15" fill="none" xmlns="http://www.w3.org/2000/svg">
<path d="M7.12501 11.3506L11.7475 6.72813C10.9698 6.40343 10.2635 5.92902 9.66876 5.33188C9.07135 4.73702 8.59672 4.03049 8.27189 3.25251L3.64939 7.87501C3.28876 8.23563 3.10814 8.41626 2.95314 8.61501C2.77008 8.84956 2.61311 9.10334 2.48501 9.37188C2.37689 9.59938 2.29626 9.84188 2.13501 10.3256L1.28376 12.8775C1.24458 12.9944 1.23877 13.1198 1.26698 13.2398C1.29518 13.3597 1.35629 13.4694 1.44343 13.5566C1.53057 13.6437 1.64029 13.7048 1.76025 13.733C1.88022 13.7613 2.00567 13.7554 2.12251 13.7163L4.67439 12.865C5.15876 12.7038 5.40064 12.6231 5.62814 12.515C5.89689 12.3869 6.15064 12.23 6.38501 12.0469C6.58376 11.8919 6.76439 11.7113 7.12501 11.3506ZM13.03 5.44563C13.4909 4.98474 13.7498 4.35963 13.7498 3.70782C13.7498 3.05601 13.4909 2.43091 13.03 1.97001C12.5691 1.50911 11.944 1.25018 11.2922 1.25018C10.6404 1.25018 10.0153 1.50911 9.55439 1.97001L9.00001 2.52438L9.02376 2.59376C9.29696 3.37546 9.74402 4.08495 10.3313 4.66876C10.9325 5.27357 11.6669 5.72945 12.4756 6.00001L13.03 5.44563Z" fill="#A1191A"/>
</svg>
