<svg width="35" height="28" viewBox="0 0 35 28"  xmlns="http://www.w3.org/2000/svg">
<path d="M15.7407 2.1228C15.2007 2.86854 14.5578 3.87144 14.3007 4.3086C13.7864 5.31149 13.4007 5.36292 12.6035 4.51432C12.2692 4.15431 11.2663 3.38285 10.3405 2.7914C9.10621 1.96851 8.5919 1.7885 8.28332 1.96851C7.79473 2.30281 7.04898 4.43718 6.66325 6.64869L6.38039 8.29447L5.42892 8.14017C0.0287123 7.21442 -0.12558 7.24014 0.157288 9.24593C0.465872 11.586 1.34019 14.569 2.21451 16.3176C2.7031 17.2948 3.01168 18.1691 2.90882 18.272C2.80596 18.3491 2.16308 18.8634 1.49448 19.4035C0.671594 20.0206 0.260149 20.5607 0.260149 20.9464C0.260149 21.6664 2.31737 24.2379 4.0403 25.6266C7.0747 28.0952 10.7263 28.481 14.455 26.6809C16.7951 25.5494 17.978 25.4723 19.5723 26.3466C22.6067 27.9924 26.1297 28.2495 28.6755 26.9895C30.9642 25.858 34.4615 22.1807 34.4615 20.895C34.4615 20.4064 33.4586 19.352 32.1728 18.5291L31.5814 18.1177L32.3271 16.6005C33.87 13.5404 34.9758 8.96306 34.4358 7.96017C34.0757 7.26586 33.2786 7.31729 28.7784 8.29447C28.547 8.3459 28.3155 7.75445 28.0327 6.44297C27.184 2.61139 26.7469 1.71136 25.8726 1.96851C25.2297 2.17423 23.3268 3.43428 22.1696 4.43717C21.7067 4.8229 21.2181 5.1572 21.0895 5.1572C20.961 5.1572 20.6524 4.77147 20.4209 4.3086C19.4438 2.4571 18.0037 0.785604 17.3608 0.785604C16.8979 0.785604 16.4608 1.14562 15.7407 2.1228ZM18.7237 5.20863C20.4724 8.29447 20.9352 10.0174 20.961 13.1289C20.961 16.3176 20.4724 18.0663 18.6209 21.2293L17.438 23.235L16.9494 22.6179C16.075 21.5121 14.4036 17.9377 13.9921 16.2148C13.4264 14.029 13.6064 10.7374 14.4036 8.62877C15.1493 6.64869 17.0008 3.35713 17.3608 3.35713C17.5151 3.35713 18.1323 4.20574 18.7237 5.20863ZM11.112 5.77437L12.8092 7.16299L12.2949 9.06593C12.012 10.0945 11.7292 10.9689 11.7034 11.0203C11.652 11.0717 10.8548 10.6603 9.90338 10.1203L8.18046 9.14307L8.33475 8.11446C8.61762 6.28868 9.08049 4.38574 9.2605 4.38574C9.33764 4.38574 10.1862 5.00291 11.112 5.77437ZM25.924 5.72294C26.6183 8.88592 26.6183 9.11736 25.7954 9.5288C25.4097 9.73452 24.6382 10.1717 24.0982 10.5317C23.5839 10.866 23.0953 11.0974 23.0439 11.046C22.9925 10.9946 22.7096 10.0945 22.4267 9.06593L21.9124 7.16299L23.6096 5.77437C24.5354 5.00291 25.384 4.38574 25.4611 4.38574C25.564 4.38574 25.7697 5.00291 25.924 5.72294ZM4.32316 9.91453C8.10331 10.8146 11.832 13.2318 11.832 14.8261C11.832 16.1119 12.7063 18.8634 13.7864 21.0492C14.4036 22.2579 14.8664 23.3122 14.815 23.3636C14.635 23.5179 10.7006 22.1036 9.38907 21.4093C7.71758 20.4835 5.42892 18.2206 4.45174 16.4719C3.65457 15.109 2.54881 12.0746 2.1888 10.3517C1.98307 9.37451 2.0345 9.37451 4.32316 9.91453ZM32.5328 10.2231C31.4271 15.5462 28.9841 19.2749 25.204 21.435C24.0468 22.1036 20.0866 23.5179 19.9066 23.3636C19.8552 23.3122 20.3181 22.2579 20.9352 21.0492C22.0153 18.8634 22.8896 16.1119 22.8896 14.8261C22.8896 13.3089 25.8469 11.2517 29.5756 10.1203C30.6299 9.81167 31.7614 9.55452 32.0957 9.55452C32.5843 9.5288 32.6614 9.63166 32.5328 10.2231ZM5.78893 21.075C7.46043 22.5664 8.77191 23.3636 11.2406 24.3151C12.2692 24.7265 13.0406 25.138 12.9892 25.2151C12.7321 25.6266 10.4434 26.038 9.15764 25.9094C6.99755 25.7037 5.01748 24.4179 3.14026 22.0779L2.31737 21.0235L3.14026 20.4321C3.60314 20.0978 4.09173 19.8406 4.2203 19.8149C4.32316 19.8149 5.04319 20.3806 5.78893 21.075ZM31.4014 20.3549C31.8128 20.6378 32.1471 21.0235 32.1471 21.2035C32.1471 21.795 29.1641 24.598 27.9041 25.2151C27.2355 25.5494 26.104 25.858 25.4097 25.9351C24.2268 26.038 21.9638 25.6009 21.7324 25.2151C21.681 25.1123 22.5553 24.6751 23.6868 24.2122C26.0269 23.3122 28.0069 22.0779 29.2927 20.7407C29.7813 20.2264 30.2956 19.8149 30.4242 19.8149C30.5528 19.8149 30.9899 20.0463 31.4014 20.3549Z" />
</svg>
