<!DOCTYPE svg PUBLIC "-//W3C//DTD SVG 1.1//EN" "http://www.w3.org/Graphics/SVG/1.1/DTD/svg11.dtd">
<!-- Uploaded to: SVG Repo, www.svgrepo.com, Transformed by: SVG Repo Mixer Tools -->
<svg height="800px" width="800px" version="1.1" id="Layer_1" xmlns="http://www.w3.org/2000/svg" xmlns:xlink="http://www.w3.org/1999/xlink" viewBox="0 0 512 512" xml:space="preserve"  stroke="#FFFFFF">
<g id="SVGRepo_bgCarrier" stroke-width="0"/>
<g id="SVGRepo_tracerCarrier" stroke-linecap="round" stroke-linejoin="round"/>
<g id="SVGRepo_iconCarrier"> <g> <path  d="M163.995,321.16c13.854,0,25.083,11.24,25.083,25.083c0,13.854-11.229,25.083-25.083,25.083 c-13.843,0-25.071-11.229-25.071-25.083C138.923,332.4,150.152,321.16,163.995,321.16z"/> <path  d="M163.995,139.361c13.854,0,25.083,11.229,25.083,25.083c0,13.854-11.229,25.083-25.083,25.083 c-13.843,0-25.071-11.229-25.071-25.083C138.923,150.59,150.152,139.361,163.995,139.361z"/> <path style="fill:#FFFFF;" d="M347.372,139.361c13.843,0,25.083,11.229,25.083,25.083c0,13.854-11.24,25.083-25.083,25.083 c-13.854,0-25.083-11.229-25.083-25.083C322.289,150.59,333.518,139.361,347.372,139.361z"/> <path  d="M347.372,321.16c13.843,0,25.083,11.24,25.083,25.083c0,13.854-11.24,25.083-25.083,25.083 c-13.854,0-25.083-11.229-25.083-25.083C322.289,332.4,333.518,321.16,347.372,321.16z"/> </g> <path  d="M512,464.541h-47.459h-24.162c-15.513,0-28.089-12.576-28.089-28.077V282.119H282.119v159.86 c0,12.461-10.1,22.561-22.561,22.561H93.157c-9.582,0-18.495,4.895-23.655,12.968L47.459,512v-47.459v-24.162 c0-15.501,12.564-28.077,28.077-28.077h154.332V282.119H70.02c-12.461,0-22.561-10.1-22.561-22.561V93.168 c0-9.582-4.895-18.507-12.968-23.666L0,47.459h47.459h24.15c15.513,0,28.089,12.576,28.089,28.089v154.332h130.171V70.02 c0-12.461,10.111-22.561,22.572-22.561h166.39c9.582,0,18.507-4.883,23.666-12.968L464.541,0v47.459v24.162 c0,15.513-12.576,28.089-28.089,28.089H282.119v130.171h159.86c12.461,0,22.561,10.1,22.561,22.561v166.39 c0,9.582,4.883,18.507,12.956,23.666L512,464.541z"/> </g>
</svg>